<?xml version="1.0"?>
<svg xmlns="http://www.w3.org/2000/svg" viewBox="0 0 24 24">
    <path d="M 8 2 L 5 5 L 7 5 L 7 8 L 9 8 L 9 5 L 11 5 L 8 2 z M 8 9 C 6.343 9 5 10.343 5 12 C 5 13.657 6.343 15 8 15 C 9.657 15 11 13.657 11 12 C 11 10.343 9.657 9 8 9 z M 14.5 9 C 13.119288 9 12 10.119288 12 11.5 C 12 12.880712 13.119288 14 14.5 14 C 15.880712 14 17 12.880712 17 11.5 C 17 10.119288 15.880712 9 14.5 9 z M 20 9 C 18.895431 9 18 9.8954305 18 11 C 18 12.104569 18.895431 13 20 13 C 21.104569 13 22 12.104569 22 11 C 22 9.8954305 21.104569 9 20 9 z M 19.71875 15 C 18.82675 15 18.15225 15.26275 17.65625 15.59375 C 19.35025 16.42975 19.99525 17.8525 20.03125 17.9375 L 20.0625 18 L 23 18 L 23 17 C 23 17 22.20375 15 19.71875 15 z M 14.5 16 C 13.273 16 12.33925 16.34125 11.65625 16.78125 C 13.98625 17.89625 14.85625 19.8235 14.90625 19.9375 L 14.9375 20 L 19 20 L 19 18.65625 C 19 18.65625 17.918 16 14.5 16 z M 8 17 C 3.442 17 2 20.34375 2 20.34375 L 2 22 L 14 22 L 14 20.34375 C 14 20.34375 12.558 17 8 17 z"/>
</svg>
